<?xml version="1.0" encoding="UTF-8" standalone="no"?>
<svg
   xmlns:dc="http://purl.org/dc/elements/1.1/"
   xmlns:cc="http://creativecommons.org/ns#"
   xmlns:rdf="http://www.w3.org/1999/02/22-rdf-syntax-ns#"
   xmlns:svg="http://www.w3.org/2000/svg"
   xmlns="http://www.w3.org/2000/svg"
   xmlns:sodipodi="http://sodipodi.sourceforge.net/DTD/sodipodi-0.dtd"
   xmlns:inkscape="http://www.inkscape.org/namespaces/inkscape"
   width="184"
   height="217.94971"
   viewBox="0 0 184 217.94971"
   version="1.1"
   id="svg7"
   sodipodi:docname="icons_health.svg"
   inkscape:version="0.92.4 (5da689c313, 2019-01-14)">
  <metadata
     id="metadata11">
    <rdf:RDF>
      <cc:Work
         rdf:about="">
        <dc:format>image/svg+xml</dc:format>
        <dc:type
           rdf:resource="http://purl.org/dc/dcmitype/StillImage" />
      </cc:Work>
    </rdf:RDF>
  </metadata>
  <sodipodi:namedview
     pagecolor="#ffffff"
     bordercolor="#666666"
     borderopacity="1"
     objecttolerance="10"
     gridtolerance="10"
     guidetolerance="10"
     inkscape:pageopacity="0"
     inkscape:pageshadow="2"
     inkscape:window-width="640"
     inkscape:window-height="480"
     id="namedview9"
     showgrid="false"
     inkscape:zoom="6.4296875"
     inkscape:cx="67.504253"
     inkscape:cy="108.949"
     inkscape:current-layer="svg7" />
  <defs
     id="defs4">
    <style
       id="style2">
      .cls-1 {
        fill-rule: evenodd;
      }
    </style>
  </defs>
  <path
     id="IconGraphic"
     class="cls-1"
     d="m 160,125.00071 v 24 h -32 v -24 h -24 v -32 h 24 v -24 h 32 v 24 h 24 v 32 z m -96,15.655 h -5 v 66.294 a 11,11 0 1 1 -22,0 v -66.294 h -4 v 66.294 a 11,11 0 1 1 -22,0 v -66.294 H 7 a 7,7 0 0 1 -7,-7 v -73.427 a 7,7 0 0 1 7,-7 h 57 a 7,7 0 0 1 7,7 v 73.427 a 7,7 0 0 1 -7,7 z m -28.5,-93.422 a 23.617,23.617 0 1 1 23.5,-23.616 23.559,23.559 0 0 1 -23.5,23.616 z"
     style="fill:#ffffff;fill-rule:evenodd"
     inkscape:connector-curvature="0" />
</svg>
