<?xml version="1.0" encoding="UTF-8" standalone="no"?>
<svg
   xmlns:dc="http://purl.org/dc/elements/1.1/"
   xmlns:cc="http://creativecommons.org/ns#"
   xmlns:rdf="http://www.w3.org/1999/02/22-rdf-syntax-ns#"
   xmlns:svg="http://www.w3.org/2000/svg"
   xmlns="http://www.w3.org/2000/svg"
   xmlns:sodipodi="http://sodipodi.sourceforge.net/DTD/sodipodi-0.dtd"
   xmlns:inkscape="http://www.inkscape.org/namespaces/inkscape"
   width="139.18553"
   height="170.14"
   viewBox="0 0 139.18553 170.14"
   version="1.1"
   id="svg7"
   sodipodi:docname="icons_agriculturesubsidies.svg"
   inkscape:version="0.92.4 (5da689c313, 2019-01-14)">
  <metadata
     id="metadata11">
    <rdf:RDF>
      <cc:Work
         rdf:about="">
        <dc:format>image/svg+xml</dc:format>
        <dc:type
           rdf:resource="http://purl.org/dc/dcmitype/StillImage" />
      </cc:Work>
    </rdf:RDF>
  </metadata>
  <sodipodi:namedview
     pagecolor="#ffffff"
     bordercolor="#666666"
     borderopacity="1"
     objecttolerance="10"
     gridtolerance="10"
     guidetolerance="10"
     inkscape:pageopacity="0"
     inkscape:pageshadow="2"
     inkscape:window-width="640"
     inkscape:window-height="480"
     id="namedview9"
     showgrid="false"
     inkscape:zoom="6.4296875"
     inkscape:cx="70.000773"
     inkscape:cy="85.142"
     inkscape:current-layer="svg7" />
  <defs
     id="defs4">
    <style
       id="style2">
      .cls-1 {
        fill-rule: evenodd;
      }
    </style>
  </defs>
  <path
     id="IconGraphic"
     class="cls-1"
     d="m 128.22577,52.73 c -0.175,2.216 6.577,0.6 6.134,1.826 -0.542,1.5 -8.22,4.734 -8.736,6.074 -0.873,2.267 5.739,0.265 6.092,0.887 -0.364,0.8 -7.464,6.778 -7.817,7.063 -3.595,2.9 -6.657,4.434 -10.582,2.1 -3.925,-2.334 -4.256,-5.893 -3.413,-10.437 0.083,-0.446 1.959,-9.533 2.493,-10.235 0.715,0.014 2.1,6.782 3.679,4.937 0.933,-1.091 0.125,-9.384 1.186,-10.574 0.868,-0.973 2.659,5.735 4.525,4.526 1.866,-1.209 -1.07,-11.545 0.3,-12.626 1.773,-1.053 2.487,6.045 4.7,5.241 4.708,-2.32 6.42,-8.065 8.117,-7.054 1.9,1.131 -2.764,5.118 -2.565,10.362 0.345,2.33 6.928,-0.419 6.846,1.641 -0.295,1.717 -10.784,4.053 -10.959,6.269 z m -25,-19 c -0.175,2.216 6.577,0.6 6.134,1.826 -0.542,1.5 -8.22,4.734 -8.736,6.074 -0.872997,2.267 5.739,0.265 6.092,0.887 -0.364,0.8 -7.463997,6.778 -7.816997,7.063 -3.595,2.9 -6.657,4.434 -10.582,2.095 -3.925,-2.339 -4.256,-5.893 -3.416,-10.437 0.083,-0.446 1.959,-9.533 2.493,-10.235 0.715,0.014 2.1,6.782 3.679,4.937 0.933,-1.091 0.125,-9.384 1.186,-10.574 0.868,-0.973 2.659,5.735 4.525,4.526 1.866,-1.209 -1.07,-11.545 0.3,-12.626 1.773,-1.053 2.487,6.045 4.699997,5.241 4.708,-2.32 6.42,-8.065 8.117,-7.054 1.9,1.131 -2.764,5.118 -2.565,10.362 0.345,2.33 6.928,-0.419 6.846,1.641 -0.292,1.722 -10.781,4.058 -10.956,6.274 z M 70.138773,44.998 c -4.875,0 -7.122,-3.076 -8.832,-7.7 -0.168,-0.454 -3.412,-9.809 -3.306,-10.745 0.663,-0.377 5.63,5.07 6.069,2.515 0.259,-1.51 -5.012,-8.67 -4.69,-10.342 0.264,-1.366 5.571,3.8 6.621,1.677 1.05,-2.123 -7.289,-10 -6.621,-11.739 1.05,-1.934 5.583,4.183 7.173,2.236 3.047,-4.7 1.479,-10.9 3.586,-10.9 2.357,0 0.263,6.2 3.31,10.9 1.59,1.947 6.123,-4.17 7.173,-2.236 0.668,1.74 -7.671,9.612 -6.621,11.739 1.05,2.127 6.357,-3.043 6.621,-1.677 0.322,1.671 -4.949,8.831 -4.69,10.342 0.439,2.555 5.406,-2.893 6.069,-2.515 0.106,0.936 -3.139,10.291 -3.306,10.745 -1.71,4.624 -3.681,7.7 -8.556,7.7 z m -2.656,27.112 -3.33,5.477 -9.093,-15.766 4.867,-2.813 z m -16.291,-21.08 c -3.949,2.32 -7.03,0.8 -10.648,-2.078 -0.355,-0.283 -7.5,-6.206 -7.866,-7 0.355,-0.617 7.008,1.368 6.13,-0.88 -0.519,-1.329 -8.246,-4.536 -8.791,-6.024 -0.446,-1.215 6.349,0.386 6.172,-1.811 -0.177,-2.197 -10.731,-4.513 -11.03,-6.221 -0.083,-2.043 6.541,0.683 6.889,-1.628 0.2,-5.2 -4.491,-9.155 -2.581,-10.276 1.707,-1 3.431,4.694 8.167,7 2.228,0.8 2.946,-6.242 4.73,-5.2 1.382,1.072 -1.572,11.322 0.305,12.521 1.877,1.199 3.68,-5.453 4.553,-4.489 1.068,1.181 0.255,9.4 1.194,10.486 1.589,1.83 2.982,-4.881 3.7,-4.9 0.538,0.7 2.426,9.708 2.509,10.15 0.851,4.506 0.516,8.03 -3.433,10.35 z m -24.231,-1.658 c 0.538,0.7 2.426,9.707 2.509,10.15 0.849,4.506 0.514,8.03 -3.435,10.35 -3.949,2.32 -7.03,0.8 -10.648,-2.078 -0.355,-0.282 -7.4999995,-6.206 -7.8659995,-7 0.355,-0.616 7.0079995,1.369 6.1299995,-0.879 -0.519,-1.329 -8.2459995,-4.537 -8.7909995,-6.024 -0.446,-1.216 6.3489995,0.386 6.1719995,-1.811 C 10.854773,49.883 0.30077346,47.562 7.7345547e-4,45.855 -0.08222654,43.812 6.5417735,46.538 6.8897735,44.227 c 0.2,-5.2 -4.491,-9.155 -2.581,-10.276 1.707,-1 3.431,4.694 8.1669995,7 2.228,0.8 2.946,-6.242 4.73,-5.2 1.381,1.071 -1.573,11.322 0.3,12.521 1.873,1.199 3.68,-5.453 4.553,-4.489 1.068,1.181 0.255,9.4 1.194,10.486 1.595,1.829 2.988,-4.883 3.708,-4.897 z m 19.54,77.626 -22.519,39 h -6.475 l 22.517,-39 z m 12.464,0 -22.519,39 h -6.475 l 22.517,-39 h 6.475 z m 10.887,0 -22.517,39 h -6.477 l 22.517,-39 h 6.475 z m 11.886,0 -22.516,39 h -6.475 l 22.516,-39 z m 4.577,39 h -6.49 l -7.857,-13.623 3.333,-5.477 z m -4.9,-29.155 16.812,29.155 h -6.49 l -13.656,-23.678 z m 5.6,-9.21 22.123997,38.365 h -6.49 L 83.681773,133.111 Z M 110.78577,76.687 96.746773,100.998 h -6.475 L 105.92677,73.883 Z m -9,-5 -16.924997,29.311 h -6.475 l 18.541,-32.115 z m -7.999997,-5 -19.812,34.311 h -6.473 l 21.428,-37.115 z m -9,-6 -23.276,40.311 h -6.475 l 24.892,-43.115 z m -23.715,21.967 -3.331,5.477 -11.7,-20.29 4.867,-2.813 z m -32.07,-4.779 4.868,-2.813 14.956,25.936 h -6.49 z m 26.471,13.988 -3.331,5.477 -14.121,-24.482 4.868,-2.813 z m 43.667,35.135 22.492997,39 h -6.49 l -22.492997,-39 z m 24.861997,43.142 v -0.035 l 0.015,0.026 z"
     style="fill:#ffffff;fill-rule:evenodd"
     inkscape:connector-curvature="0" />
</svg>
