<?xml version="1.0" encoding="UTF-8" standalone="no"?>
<svg
   xmlns:dc="http://purl.org/dc/elements/1.1/"
   xmlns:cc="http://creativecommons.org/ns#"
   xmlns:rdf="http://www.w3.org/1999/02/22-rdf-syntax-ns#"
   xmlns:svg="http://www.w3.org/2000/svg"
   xmlns="http://www.w3.org/2000/svg"
   xmlns:sodipodi="http://sodipodi.sourceforge.net/DTD/sodipodi-0.dtd"
   xmlns:inkscape="http://www.inkscape.org/namespaces/inkscape"
   width="205"
   height="108"
   viewBox="0 0 205 108"
   version="1.1"
   id="svg7"
   sodipodi:docname="icons_ClimateChangeAdaptionFund.svg"
   inkscape:version="0.92.4 (5da689c313, 2019-01-14)">
  <metadata
     id="metadata11">
    <rdf:RDF>
      <cc:Work
         rdf:about="">
        <dc:format>image/svg+xml</dc:format>
        <dc:type
           rdf:resource="http://purl.org/dc/dcmitype/StillImage" />
      </cc:Work>
    </rdf:RDF>
  </metadata>
  <sodipodi:namedview
     pagecolor="#ffffff"
     bordercolor="#666666"
     borderopacity="1"
     objecttolerance="10"
     gridtolerance="10"
     guidetolerance="10"
     inkscape:pageopacity="0"
     inkscape:pageshadow="2"
     inkscape:window-width="640"
     inkscape:window-height="480"
     id="namedview9"
     showgrid="false"
     inkscape:zoom="6.4296875"
     inkscape:cx="102"
     inkscape:cy="54"
     inkscape:current-layer="svg7" />
  <defs
     id="defs4">
    <style
       id="style2">
      .cls-1 {
        fill-rule: evenodd;
      }
    </style>
  </defs>
  <path
     id="IconGraphic"
     class="cls-1"
     d="m 0,108 v -8 h 111.144 l -0.706,-61.673 a 10.183,10.183 0 0 1 -17.1,-2.379 10.231,10.231 0 0 1 -18.666,0 10.232,10.232 0 0 1 -18.667,0 10.232,10.232 0 0 1 -18.667,0 10.232,10.232 0 0 1 -18.667,0 10.232,10.232 0 0 1 -18.667,0 V 29 a 10.232,10.232 0 0 0 18.667,0 10.232,10.232 0 0 0 18.667,0 10.232,10.232 0 0 0 18.662,0 10.232,10.232 0 0 0 18.667,0 10.231,10.231 0 0 0 18.666,0 10.186,10.186 0 0 0 17.027,2.48 L 110,0 h 21 l 60.965,100 H 205 v 8 z"
     style="fill:#ffffff;fill-rule:evenodd"
     inkscape:connector-curvature="0" />
</svg>
